<svg width="203" height="175" viewBox="0 0 203 175" fill="none" xmlns="http://www.w3.org/2000/svg">
<g id="cooking 1" clip-path="url(#clip0_13799_21213)">
<g id="Layer 2">
<g id="OBJECTS">
<path id="Vector" opacity="0.24" d="M202.059 129.817C202.341 105.882 157.361 85.9465 101.591 85.2832H101.51H99.4264H97.8686C43.8143 85.4788 0.377773 104.021 0.10062 127.431C0.0840532 128.875 0.231537 130.315 0.540242 131.726C3.48379 155.24 46.9824 174.355 100.449 174.985C152.683 175.601 195.823 158.361 201.051 135.715C201.689 133.812 202.029 131.823 202.059 129.817Z" fill="#9FA7C4"/>
<path id="Vector_2" d="M199.086 128.126C199.38 103.356 155.287 82.7498 100.601 82.1011C45.9152 81.4523 1.34501 101.007 1.05088 125.777C0.756749 150.547 44.8501 171.153 99.5361 171.802C154.222 172.45 198.792 152.896 199.086 128.126Z" fill="#E9DEC5"/>
<path id="Vector_3" d="M199.547 126.614C199.831 102.679 155.565 82.7484 100.676 82.0972C45.7864 81.446 1.05956 100.321 0.77535 124.256C0.49114 148.191 44.7572 168.122 99.6464 168.773C154.536 169.424 199.262 150.549 199.547 126.614Z" fill="white"/>
<path id="Vector_4" d="M195.911 125.936C196.181 103.229 153.536 84.3139 100.66 83.6872C47.7842 83.0606 4.7012 100.96 4.43131 123.667C4.16142 146.374 46.8069 165.289 99.6826 165.916C152.558 166.543 195.641 148.643 195.911 125.936Z" fill="#FFFFF4"/>
<path id="Vector_5" opacity="0.53" d="M162.798 122.638C162.951 109.747 135.015 98.9637 100.401 98.5535C65.7861 98.1433 37.6013 108.261 37.4481 121.152C37.2949 134.043 65.2312 144.826 99.8457 145.236C134.46 145.646 162.645 135.529 162.798 122.638Z" fill="#E9DEC5"/>
<path id="Vector_6" opacity="0.53" d="M161.049 122.622C161.191 110.743 134.207 100.792 100.78 100.396C67.3531 99.9994 40.1407 109.308 39.9995 121.187C39.8584 133.066 66.8418 143.017 100.269 143.414C133.696 143.81 160.908 134.501 161.049 122.622Z" fill="#E0D0AD"/>
<path id="Vector_7" opacity="0.53" d="M1.60571 120.674C1.60571 120.674 1.83508 127.832 11.0385 131.124C20.2418 134.417 22.9608 133.176 25.2306 129.693C27.5004 126.209 37.4492 121.152 37.4492 121.152L38.1182 117.764L1.60571 120.674Z" fill="#E9DEC5"/>
<path id="Vector_8" d="M43.4843 117.979C43.4843 117.979 37.5351 118.537 30.5251 123.257C23.515 127.976 23.73 129.87 21.9524 130.743C20.1748 131.616 10.1735 131.993 3.93752 124.721C-2.29842 117.449 0.114722 104.013 2.80024 100.386C5.48575 96.7597 36.3166 105.01 36.3166 105.01L43.4843 117.979Z" fill="#8D431E"/>
<path id="Vector_9" d="M44.6312 105.864C44.1294 105.606 33.9751 108.517 28.2457 111.733C22.5163 114.949 21.3551 117.082 18.1583 119.196C14.9615 121.31 8.04701 118.695 4.43925 113.599C0.831484 108.502 -0.463487 100.41 8.73989 92.6844C17.9433 84.9591 31.4855 83.8617 37.4109 85.0498C43.3362 86.2379 44.6312 105.864 44.6312 105.864Z" fill="#D49638"/>
<path id="Vector_10" d="M16.9973 108.65C16.9973 109.576 18.3353 110.344 20.0078 110.364C21.6802 110.383 23.0469 109.648 23.0564 108.722C23.066 107.796 21.7232 107.023 20.046 107.004C18.3687 106.985 17.0116 107.72 16.9973 108.65Z" fill="#C9822A"/>
<path id="Vector_11" d="M12.4246 96.1583C12.4246 96.7786 13.3181 97.2892 14.4315 97.3035C15.5449 97.3178 16.4576 96.8263 16.4624 96.206C16.4672 95.5857 15.5736 95.0751 14.4602 95.0656C13.3468 95.056 12.4246 95.5427 12.4246 96.1583Z" fill="#C9822A"/>
<path id="Vector_12" d="M11.4685 104.112C11.4685 104.666 12.257 105.119 13.2509 105.134C14.2448 105.148 15.0524 104.709 15.0572 104.155C15.0619 103.602 14.2639 103.153 13.2748 103.139C12.2856 103.125 11.4685 103.545 11.4685 104.112Z" fill="#C9822A"/>
<path id="Vector_13" d="M23.8635 93.4193C23.8635 93.9681 24.6568 94.4262 25.6507 94.4357C26.6446 94.4452 27.4474 94.011 27.457 93.4814C27.4665 92.9517 26.6637 92.4745 25.6746 92.465C24.6854 92.4555 23.8922 92.8706 23.8635 93.4193Z" fill="#C9822A"/>
<path id="Vector_14" d="M27.4027 101.954C27.4129 101.095 26.1654 100.384 24.6164 100.366C23.0674 100.347 21.8034 101.029 21.7931 101.888C21.7829 102.747 23.0304 103.458 24.5794 103.477C26.1285 103.495 27.3925 102.813 27.4027 101.954Z" fill="#C9822A"/>
<path id="Vector_15" d="M7.10571 110.55C7.10571 111.409 8.33857 112.12 9.89158 112.139C11.4446 112.158 12.7013 111.476 12.7109 110.617C12.7204 109.758 11.4733 109.047 9.92503 109.028C8.37679 109.009 7.11527 109.691 7.10571 110.55Z" fill="#C9822A"/>
<path id="Vector_16" opacity="0.17" d="M2.57076 101.202C2.7858 100.539 3.01516 99.9326 3.22064 99.3552C4.33617 97.2205 5.82315 95.3011 7.61208 93.6865C8.84015 98.9067 12.8397 111.28 23.7443 115.383C23.7443 115.383 25.2973 123.939 25.4884 127.179C23.4241 129.149 23.0992 130.166 21.9523 130.729C20.2799 131.54 11.4014 131.931 5.15593 125.995L5.81058 115.316C4.00364 113.501 2.7423 111.216 2.16965 108.722C1.597 106.227 1.73596 103.622 2.57076 101.202Z" fill="white"/>
<path id="Vector_17" opacity="0.24" d="M100.568 157.464C100.568 157.464 96.712 159.964 98.5995 162.236C100.487 164.507 107.516 161.692 114.249 158.896C120.982 156.099 134.72 152.139 143.011 151.261C151.302 150.383 178.372 152.635 178.372 152.635L184.45 150.192L139.566 146.489L100.568 157.464Z" fill="#CFB994"/>
<path id="Vector_18" d="M192.884 138.73C192.884 138.73 193.362 133.606 185.798 129.917C178.233 126.229 165.336 142.949 165.336 142.949L192.884 138.73Z" fill="#05893D"/>
<path id="Vector_19" d="M195.053 145.32C197.158 142.585 198.698 139.459 199.583 136.125C199.583 136.125 182.19 141.698 160.4 136.387L151.144 143.368L187.986 148.45L195.053 145.32Z" fill="#026329"/>
<path id="Vector_20" d="M161.924 144.824C161.924 144.824 178.854 140.215 188 130.404C188 130.404 188.774 127.231 182.72 124.368C176.665 121.505 156.218 142.143 156.218 142.143L161.924 144.824Z" fill="#01B05E"/>
<path id="Vector_21" d="M158.402 143.517C158.402 143.517 171.491 140.506 187.341 123.753C187.341 123.753 188.206 120.498 184.369 117.411C180.532 114.324 149.672 141.656 149.672 141.656L158.402 143.517Z" fill="#6AC761"/>
<path id="Vector_22" d="M195.374 151.261C194.642 151.762 155.884 149.749 149.347 148.732C142.81 147.716 134.013 149.038 134.013 149.038L137.301 139.971C137.301 139.971 144.946 138.182 150.159 134.928C155.373 131.674 174.401 119.492 183.767 107.729C183.767 107.729 188.01 112.682 187.589 116.743C187.589 116.743 177.98 131.678 154.828 141.737C154.828 141.737 182.357 147.43 203.019 142.186C203 142.195 200.405 147.821 195.374 151.261Z" fill="#54AB4E"/>
<path id="Vector_23" d="M100.903 160.662L99.1062 144.343C103.177 144.6 124.609 145.216 150.16 134.942C146.339 137.603 142.102 139.609 137.621 140.878C141.786 140.786 145.885 139.81 149.644 138.015C146.047 140.861 141.709 142.62 137.143 143.083C137.143 143.083 147.149 143.374 150.915 141.15C146.854 143.783 142.185 145.332 137.353 145.65C137.353 145.65 147.388 144.352 153.399 145.359C153.399 145.359 146.848 145.049 137.153 147.95C137.153 147.95 145.591 146.795 153.251 149.162C153.251 149.162 144.765 148.279 133.66 150.264C122.554 152.249 109.084 159.058 100.903 160.662Z" fill="#C6DD7C"/>
<path id="Vector_24" opacity="0.15" d="M199.865 147.043C189.979 149.868 165.494 148.474 156.209 146.499C146.418 144.39 132.197 145.96 122.526 149.763C114.077 153.103 102.934 154.405 100.243 154.687L100.903 160.661C109.084 159.058 122.516 152.253 133.631 150.264C144.746 148.274 153.223 149.161 153.223 149.161H153.194C165.025 150.221 194.719 151.705 195.359 151.266C197.057 150.082 198.575 148.66 199.865 147.043Z" fill="black"/>
<path id="Vector_25" opacity="0.5" d="M101.586 146.204C101.586 146.204 98.3461 148.88 102.905 149.763C107.463 150.646 124.599 144.71 130.859 144.09C137.119 143.469 141.529 142.324 139.513 140.955C137.496 139.585 128.326 143.899 118.339 144.829C108.352 145.76 101.586 146.204 101.586 146.204Z" fill="#F4F6DF"/>
<path id="Vector_26" d="M10.9623 71.3311C10.9384 73.173 9.71029 74.6713 8.21462 74.6379C6.71895 74.6045 5.52433 73.111 5.54344 71.2643C5.56255 69.4177 6.7954 67.9242 8.29107 67.9576C9.78674 67.991 10.9909 69.4845 10.9623 71.3311Z" fill="white"/>
<path id="Vector_27" d="M171.548 83.4559C171.73 83.2746 128.91 87.4736 100.779 90.1982C72.5856 88.0605 29.6939 84.749 29.8802 84.9494C29.8802 84.9494 30.3915 99.8942 35.667 110.339C37.5497 114.066 39.5519 117.63 42.2661 120.837C43.8621 123.223 50.4899 131.812 65.1455 136.106C82.2525 141.083 119.295 142.715 138.734 136.459C150.408 132.709 158.14 123.099 162.46 116.037C163.87 113.76 165.146 111.404 166.282 108.979C171.333 98.4102 171.548 83.4559 171.548 83.4559Z" fill="#F8F5E2"/>
<path id="Vector_28" opacity="0.18" d="M109.294 140.454C120.318 140.191 130.94 138.951 138.734 136.446C150.408 132.695 158.14 123.085 162.459 116.023C163.869 113.746 165.146 111.39 166.282 108.966C170.717 99.7135 171.419 87.0782 171.539 84.1055C167.563 84.3536 127.744 88.2616 101.094 90.8383C72.9009 88.7006 30.0091 85.389 30.1955 85.5895C30.1955 85.5895 29.947 85.4558 29.9852 86.6965C30.0186 87.1307 30.0617 87.6269 30.1094 88.19C30.1907 88.8771 30.3149 89.736 30.5013 90.8287C35.7003 95.8199 45.3146 105 94.643 108.608C108.338 109.605 119.969 108.608 125.531 108.565C128.699 108.699 133.769 109.171 134.328 113.179C135.232 119.583 131.48 136.503 109.294 140.454Z" fill="#BFBA91"/>
<path id="Vector_29" d="M175.777 81.5947C168.758 95.2369 144.454 104.613 101.863 105.749C61.2128 106.832 34.0088 97.2219 25.8567 83.3745" fill="#E9DEC5"/>
<path id="Vector_30" d="M98.7092 45.0782L99.3113 103.106C99.3113 103.106 158.421 103.836 173 81.6337C173 81.6337 181.439 84.0195 189.601 81.2377C200.787 77.4203 201.748 62.9623 190.485 58.4865C187.336 57.2433 183.946 56.7264 180.568 56.9743C177.191 57.2221 173.913 58.2284 170.979 59.918C170.979 59.918 149.968 43.9855 98.7092 45.0782ZM174.071 65.9207C174.071 65.9207 180.441 63.7257 183.934 65.0332C187.427 66.3406 187.479 71.3842 184.693 73.4265C181.908 75.4687 174.367 73.0877 174.367 73.0877C174.367 73.0877 175.371 70.2772 174.071 65.9207Z" fill="#FFFFF4"/>
<path id="Vector_31" d="M186.782 69.0359C186.782 69.0359 184.842 66.0297 179.567 66.087C174.291 66.1442 174.31 67.0413 174.31 67.0413L173.388 64.8082C173.388 64.8082 178.525 62.4224 183.136 63.3767C187.747 64.331 186.782 69.0359 186.782 69.0359Z" fill="#ECE7CF"/>
<path id="Vector_32" d="M198.461 70.1436C198.461 70.1436 196.645 79.014 186.003 80.5791C175.361 82.1442 173.541 79.9254 173.541 79.9254C173.412 80.8359 173.033 81.693 172.447 82.4019C172.447 82.4019 177.736 84.1388 185.917 82.9316C194.098 81.7243 198.747 76.0843 198.461 70.1436Z" fill="#F0ECD9"/>
<path id="Vector_33" d="M30.3293 61.3637C27.3611 59.7342 24.0627 58.7952 20.6802 58.6167C17.2977 58.4382 13.9185 59.0249 10.7948 60.333C-0.372506 65.0426 0.889017 79.4911 12.1567 83.0603C20.3709 85.6656 28.762 83.1128 28.762 83.1128C43.7951 105.029 99.8708 103.101 99.8708 103.101L99.2687 45.0733C47.9954 45.0446 30.3293 61.3637 30.3293 61.3637ZM27.2376 74.6145C27.2376 74.6145 19.745 77.1578 16.9209 75.168C14.0968 73.1782 14.0538 68.1442 17.5086 66.7604C20.9635 65.3766 27.3858 67.4427 27.3858 67.4427C26.172 71.8231 27.2376 74.6145 27.2376 74.6145Z" fill="#FFFFF4"/>
<path id="Vector_34" d="M100.675 93.1133C137.723 92.7258 167.657 82.9697 167.535 71.3223C167.413 59.6748 137.28 50.5468 100.232 50.9342C63.1841 51.3217 33.2497 61.0778 33.3718 72.7252C33.494 84.3727 63.6264 93.5007 100.675 93.1133Z" fill="#ECE7CF"/>
<path id="Vector_35" d="M14.7183 70.8203C14.7183 70.8203 16.5963 67.776 21.8861 67.7235C27.1759 67.6711 27.1711 68.5634 27.1711 68.5634L28.0264 66.3255C28.0264 66.3255 23.5155 64.1305 18.9473 65.185C14.379 66.2396 14.7183 70.8203 14.7183 70.8203Z" fill="#ECE7CF"/>
<path id="Vector_36" d="M3.06773 72.1758C3.06773 72.1758 5.06515 80.9986 15.7355 82.3537C24.7239 83.5037 28.1931 81.4375 28.1931 81.4375C28.3423 82.3448 28.7391 83.1935 29.3399 83.8902C29.3399 83.8902 24.0836 85.7368 15.8837 84.7013C7.68376 83.6659 2.90527 78.1165 3.06773 72.1758Z" fill="#F0ECD9"/>
<path id="Vector_37" opacity="0.56" d="M42.6288 114.333C42.6288 114.333 39.1071 106.98 45.84 107.362C51.039 107.653 53.1798 110.965 57.8244 116.199C60.9544 119.725 66.4592 126.42 66.9466 130.223C67.434 134.026 58.7228 131.125 53.8965 126.997C45.2713 119.616 42.6288 114.333 42.6288 114.333Z" fill="white"/>
<path id="Vector_38" d="M37.3347 87.9512C37.3347 87.9512 35.28 84.1673 38.6392 83.6806C41.9985 83.1939 40.9138 86.5722 56.8883 90.6615C72.8628 94.7508 80.7139 94.8987 82.5106 94.8796C84.3073 94.8605 87.6762 95.4952 87.2509 97.7426C86.8256 99.9901 77.6365 100.754 66.1681 98.4107C54.6998 96.0678 43.6758 93.4911 37.3347 87.9512Z" fill="white"/>
<path id="Vector_39" opacity="0.51" d="M98.4751 55.0552C98.4751 55.0552 92.0815 44.3667 99.5933 33.1057C107.105 21.8446 95.264 5.11997 92.0671 0C92.0671 0 100.668 5.06271 105.251 16.4431C109.834 27.8235 104.773 33.2536 102.561 37.9823C100.348 42.711 97.0654 49.0191 98.4751 55.0552Z" fill="#F1F5F9"/>
<path id="Vector_40" opacity="0.51" d="M110.703 54.5018C110.703 54.5018 106.881 45.1923 114.206 37.0519C121.531 28.9115 114.053 14.148 112.108 9.68652C112.108 9.68652 118.373 14.754 120.709 24.407C123.046 34.0601 118.32 37.801 115.998 41.3225C113.676 44.844 110.292 49.5059 110.703 54.5018Z" fill="#F1F5F9"/>
<path id="Vector_41" opacity="0.51" d="M87.3894 55.8761C87.3894 55.8761 81.832 47.4733 87.485 38.0779C93.138 28.6825 82.955 15.6512 80.1882 11.6191C80.1882 11.6191 87.3034 15.3983 91.4464 24.4262C95.5893 33.4542 91.6614 38.0302 90.0654 41.9286C88.4694 45.8271 86.0132 51.0568 87.3894 55.8761Z" fill="#F1F5F9"/>
<path id="Vector_42" d="M100.675 93.117C135.699 92.7507 164.025 86.0964 163.942 78.2541C163.86 70.4119 135.401 64.3514 100.377 64.7177C65.3528 65.0839 37.0269 71.7382 37.1091 79.5805C37.1914 87.4227 65.6507 93.4832 100.675 93.117Z" fill="#F27E37"/>
<path id="Vector_43" d="M98.9152 89.7794C128.407 89.4849 152.264 84.1894 152.202 77.9517C152.139 71.7139 128.181 66.8959 98.689 67.1904C69.1972 67.4849 45.3399 72.7803 45.4024 79.0181C45.4649 85.2559 69.4234 90.0739 98.9152 89.7794Z" fill="#F26037"/>
<path id="Vector_44" d="M88.4218 87.0797C109.634 86.8579 126.787 82.615 126.734 77.6029C126.681 72.5909 109.443 68.7076 88.2314 68.9294C67.0196 69.1512 49.8666 73.3941 49.9191 78.4062C49.9717 83.4183 67.2099 87.3016 88.4218 87.0797Z" fill="#E44437"/>
<path id="Vector_45" d="M131.481 75.9549C131.481 76.208 130.563 76.4324 129.426 76.4324C128.289 76.4324 127.361 76.2462 127.357 75.9931C127.352 75.7401 128.279 75.5156 129.416 75.5156C130.554 75.5156 131.481 75.6971 131.481 75.9549Z" fill="#C24437"/>
<path id="Vector_46" d="M132.216 74.2183C131.744 74.7856 131.162 75.2517 130.505 75.5887C129.848 75.9257 129.129 76.1266 128.393 76.1795C125.951 76.2797 128.766 73.6744 132.216 74.2183Z" fill="#0ABA4A"/>
<path id="Vector_47" d="M65.0494 74.7769C65.1116 75.025 64.2658 75.4497 63.1619 75.7312C62.0581 76.0127 61.112 76.027 61.0498 75.7837C60.9877 75.5403 61.8335 75.1109 62.9612 74.8293C64.089 74.5478 64.9873 74.5335 65.0494 74.7769Z" fill="#C24437"/>
<path id="Vector_48" d="M65.3601 72.9199C65.0317 73.5838 64.5718 74.1743 64.0084 74.6557C63.445 75.1371 62.7897 75.4995 62.0821 75.7209C59.731 76.3794 61.8814 73.1919 65.3601 72.9199Z" fill="#0ABA4A"/>
<path id="Vector_49" d="M112.773 84.2147C112.773 84.4678 111.855 84.6922 110.718 84.6922C109.581 84.6922 108.654 84.506 108.654 84.2529C108.654 83.9998 109.571 83.7754 110.708 83.7754C111.846 83.7754 112.773 83.9807 112.773 84.2147Z" fill="#C24437"/>
<path id="Vector_50" d="M107.416 82.6016C108.133 82.4129 108.881 82.3715 109.614 82.4797C110.347 82.588 111.051 82.8437 111.683 83.2315C113.728 84.5532 109.905 85.0447 107.416 82.6016Z" fill="#0ABA4A"/>
<path id="Vector_51" d="M81.9753 82.7693C81.9753 83.0271 81.0578 83.2468 79.9205 83.2468C78.7832 83.2468 77.8562 83.0606 77.8562 82.8027C77.8562 82.5449 78.7737 82.3252 79.911 82.3252C81.0482 82.3252 81.9753 82.5162 81.9753 82.7693Z" fill="#C24437"/>
<path id="Vector_52" d="M76.6042 81.1608C77.3208 80.9706 78.0686 80.9279 78.8022 81.0353C79.5358 81.1428 80.2398 81.3982 80.8714 81.7859C82.9071 83.1124 79.0986 83.5991 76.6042 81.1608Z" fill="#0ABA4A"/>
<path id="Vector_53" opacity="0.56" d="M153.476 79.1279C153.476 79.1279 149.926 83.0884 135.724 84.5771C121.523 86.0659 127.204 82.6685 128.881 82.0434C130.559 81.4183 136.68 79.6099 136.68 79.6099L153.476 79.1279Z" fill="#C24437"/>
<path id="Vector_54" d="M127.725 83.9812C127.725 83.9812 131.443 75.0916 140.746 73.9608C150.05 72.8299 153.476 79.0951 153.476 79.0951C153.476 79.0951 144.335 84.8258 127.725 83.9812Z" fill="#F5BA20"/>
<path id="Vector_55" d="M133.44 84.0241C142.896 83.6614 149.209 81.2327 151.932 79.9348C150.451 78.2552 146.882 75.1631 141.558 76.4515C139.659 76.8912 137.908 77.8224 136.483 79.1517C135.058 80.481 134.008 82.1614 133.44 84.0241Z" fill="#F5C43D"/>
<path id="Vector_56" d="M137.74 83.7043C141.676 83.2914 145.547 82.4004 149.266 81.0512C148.365 80.2227 147.281 79.6181 146.102 79.2865C144.923 78.9548 143.682 78.9055 142.481 79.1426C139.585 79.7152 138.309 81.8767 137.74 83.7043Z" fill="#F6DF71"/>
<path id="Vector_57" opacity="0.56" d="M116.848 68.473C116.848 68.473 114.769 68.3251 114.937 69.1077C115.104 69.8902 119.94 71.1881 126.63 71.5746C133.319 71.9611 139.641 71.2167 140.191 70.4246C140.74 69.6326 136.368 70.1288 136.368 70.1288L116.848 68.473Z" fill="#C24437"/>
<path id="Vector_58" d="M116.238 69.0987C116.238 69.0987 120.658 62.7762 128.399 62.9194C136.14 63.0625 139.585 70.4252 139.585 70.4252C139.585 70.4252 129.627 73.0066 116.238 69.0987Z" fill="#F5BA20"/>
<path id="Vector_59" d="M121.913 70.425C127.06 71.3794 132.327 71.5099 137.515 70.8115C136.648 69.261 135.377 67.9739 133.837 67.0868C132.296 66.1996 130.544 65.7455 128.766 65.7726C124.389 65.8204 122.372 69.4563 121.913 70.425Z" fill="#F5D23D"/>
<path id="Vector_60" d="M135.389 71.0592C134.08 69.2364 131.399 67.1989 128.79 67.8479C128.023 68.0048 127.32 68.3834 126.768 68.9367C126.216 69.4899 125.839 70.1932 125.684 70.959C128.908 71.311 132.158 71.3445 135.389 71.0592Z" fill="#F6DF71"/>
<path id="Vector_61" opacity="0.56" d="M91.2697 89.8886C91.2697 89.8886 89.1911 89.9172 89.43 90.6807C89.6689 91.4442 94.6147 92.3317 101.305 92.1456C107.994 91.9595 114.24 90.6903 114.723 89.86C115.205 89.0297 110.9 89.8838 110.9 89.8838L91.2697 89.8886Z" fill="#C24437"/>
<path id="Vector_62" d="M90.7249 90.5606C90.7249 90.5606 94.5954 83.8803 102.322 83.4032C110.049 82.926 114.101 89.9356 114.101 89.9356C114.101 89.9356 104.396 93.3139 90.7249 90.5606Z" fill="#F5BA20"/>
<path id="Vector_63" d="M96.4924 91.4057C101.702 91.9263 106.961 91.6122 112.07 90.4753C111.077 89.0018 109.703 87.8246 108.093 87.0684C106.484 86.3123 104.699 86.0056 102.929 86.1808C98.5759 86.6102 96.8699 90.3989 96.4924 91.4057Z" fill="#F5D23D"/>
<path id="Vector_64" d="M109.972 90.9046C108.539 89.2011 105.671 87.3974 103.125 88.2563C102.379 88.4779 101.714 88.912 101.211 89.5052C100.709 90.0985 100.391 90.8253 100.296 91.5965C103.536 91.6846 106.777 91.4528 109.972 90.9046Z" fill="#F6DF71"/>
<path id="Vector_65" opacity="0.56" d="M71.1999 87.8362C71.1999 87.8362 73.2451 88.2323 72.8724 88.9433C72.4997 89.6542 67.4918 89.6495 60.9262 88.2848C54.3605 86.9201 48.4543 84.5724 48.1246 83.6658C47.7949 82.7592 51.8901 84.3672 51.8901 84.3672L71.1999 87.8362Z" fill="#C24437"/>
<path id="Vector_66" d="M71.6107 88.5949C71.6107 88.5949 68.9778 81.3468 61.466 79.4811C53.9542 77.6154 48.7122 83.8328 48.7122 83.8328C48.7122 83.8328 57.6671 88.8907 71.6107 88.5949Z" fill="#F5BA20"/>
<path id="Vector_67" d="M65.7805 88.409C60.5614 87.9999 55.4413 86.7612 50.6135 84.7396C51.8545 83.4686 53.4165 82.5563 55.1343 82.0993C56.852 81.6424 58.6615 81.6577 60.3712 82.1438C64.5858 83.3176 65.5893 87.3544 65.7805 88.409Z" fill="#F5D23D"/>
<path id="Vector_68" d="M52.6018 85.5369C54.3412 84.1054 57.4568 82.8409 59.8126 84.1388C60.5119 84.4908 61.0922 85.0403 61.4813 85.719C61.8705 86.3977 62.0512 87.1757 62.0011 87.9561C58.7966 87.4573 55.6485 86.647 52.6018 85.5369Z" fill="#F6DF71"/>
<path id="Vector_69" opacity="0.56" d="M68.0507 74.7763C68.0507 74.7763 65.112 75.0625 65.3748 76.1505C65.6376 77.2384 78.5873 76.432 79.7628 76.2507C80.9383 76.0694 79.4809 73.3877 79.4809 73.3877L68.0507 74.7763Z" fill="#C24437"/>
<path id="Vector_70" d="M66.4641 75.8025C66.4641 75.8025 70.435 69.3751 76.9768 68.4685C83.5186 67.5619 86.4478 73.159 86.4478 73.159C86.4478 73.159 78.4199 76.6041 66.4641 75.8025Z" fill="#F5BA20"/>
<path id="Vector_71" d="M71.2473 75.9077C80.5128 75.7025 86.462 73.1592 86.462 73.1592C85.334 71.2357 83.5926 69.7454 81.5163 68.9268C75.8872 69.7189 72.1791 74.5668 71.2473 75.9077Z" fill="#F5D23D"/>
<path id="Vector_72" d="M102.136 80.6698C102.136 80.6698 100.846 80.813 100.855 81.7148C100.865 82.6167 103.722 82.0107 105.251 82.0584C106.781 82.1061 112.295 82.755 115.52 82.3351C118.746 81.9152 121.766 80.4647 122.401 79.6869C123.037 78.9091 122.191 78.2554 121.288 78.0884C120.385 77.9214 102.136 80.6698 102.136 80.6698Z" fill="#C24437"/>
<path id="Vector_73" d="M72.4085 83.5563C72.4085 83.5563 72.9629 82.8787 73.5219 82.9837C73.7824 83.0417 74.0215 83.1711 74.2123 83.3574C74.4031 83.5437 74.538 83.7795 74.6019 84.0382C74.6019 84.3723 72.9151 84.0001 72.0215 84.2864C72.0215 84.2864 71.7921 83.5611 72.4085 83.5563Z" fill="#AA1713"/>
<path id="Vector_74" d="M75.6438 77.9405C75.6438 77.9405 75.964 77.5441 76.2937 77.6062C76.4437 77.6418 76.5811 77.7175 76.6914 77.8252C76.8016 77.9328 76.8805 78.0684 76.9197 78.2174C76.9197 78.4132 75.9401 78.2174 75.4192 78.3655C75.4192 78.3655 75.2854 77.9405 75.6438 77.9405Z" fill="#AA1713"/>
<path id="Vector_75" d="M83.5662 88.4522C83.5662 88.4522 83.8863 88.0559 84.2113 88.1179C84.3619 88.1521 84.5002 88.2273 84.6107 88.3352C84.7212 88.4431 84.7996 88.5794 84.8372 88.7291C84.8372 88.9249 83.8816 88.7291 83.3416 88.8772C83.3416 88.8772 83.2078 88.4522 83.5662 88.4522Z" fill="#E2952C"/>
<path id="Vector_76" d="M58.2972 76.8567C58.2972 76.8567 58.6222 76.4651 58.9471 76.5272C59.0971 76.5628 59.2345 76.6385 59.3448 76.7462C59.4551 76.8538 59.534 76.9894 59.5731 77.1384C59.5731 77.3342 58.6174 77.1384 58.0726 77.2817C58.0679 77.3008 57.9341 76.8614 58.2972 76.8567Z" fill="#E2952C"/>
<path id="Vector_77" d="M156.157 76.7424C156.157 76.7424 156.482 76.3508 156.807 76.4129C156.958 76.4471 157.096 76.5223 157.206 76.6302C157.317 76.7381 157.395 76.8744 157.433 77.0241C157.433 77.2199 156.477 77.0241 155.937 77.1674C155.937 77.1674 155.78 76.7472 156.157 76.7424Z" fill="#E2C82C"/>
<path id="Vector_78" d="M81.2349 79.801C81.2349 79.801 81.5598 79.4094 81.8848 79.4715C82.0347 79.5071 82.1722 79.5828 82.2824 79.6905C82.3927 79.7982 82.4716 79.9337 82.5107 80.0827C82.5107 80.2785 81.555 80.0589 81.0103 80.226C81.0246 80.226 80.8908 79.8058 81.2349 79.801Z" fill="#E2C82C"/>
<path id="Vector_79" d="M48.4591 78.5172C48.4591 78.5172 47.9478 77.8921 47.4317 77.9923C47.1942 78.0448 46.9758 78.1617 46.8004 78.33C46.6251 78.4984 46.4996 78.7117 46.4377 78.9467C46.4377 79.2568 47.9908 78.9133 48.827 79.1805C48.8127 79.2091 49.0277 78.522 48.4591 78.5172Z" fill="#E2C82C"/>
<path id="Vector_80" d="M147.135 84.4821C147.135 84.4821 146.624 83.857 146.107 83.9572C145.87 84.0097 145.652 84.1265 145.476 84.2949C145.301 84.4632 145.175 84.6766 145.114 84.9115C145.114 85.2217 146.667 84.8781 147.503 85.1453C147.488 85.1596 147.703 84.4868 147.135 84.4821Z" fill="#E2C82C"/>
<path id="Vector_81" d="M123.763 75.8029C123.763 75.8029 124.083 75.4113 124.408 75.4686C124.559 75.5037 124.698 75.5797 124.808 75.6884C124.919 75.7971 124.997 75.9343 125.034 76.0846C125.034 76.2804 124.079 76.0846 123.539 76.2279C123.553 76.2279 123.419 75.8077 123.763 75.8029Z" fill="#E2952C"/>
<path id="Vector_82" d="M124.853 86.2999C124.853 86.2999 125.173 85.9084 125.498 85.9657C125.649 86.0007 125.787 86.0768 125.898 86.1855C126.008 86.2942 126.087 86.4313 126.124 86.5817C126.124 86.7775 125.168 86.5817 124.628 86.7249C124.628 86.7249 124.494 86.3047 124.853 86.2999Z" fill="#E2AA2C"/>
<path id="Vector_83" d="M66.4739 78.9426C66.4739 78.9426 66.794 78.551 67.1238 78.6131C67.2735 78.6481 67.4108 78.7236 67.5204 78.8314C67.63 78.9393 67.7077 79.0752 67.745 79.2243C67.745 79.4201 66.7893 79.2005 66.2493 79.3676C66.2493 79.3676 66.1155 78.9474 66.4739 78.9426Z" fill="#AA1713"/>
<path id="Vector_84" d="M135.351 73.4835C135.351 73.4835 135.676 73.092 136.001 73.1493C136.152 73.1848 136.29 73.2611 136.4 73.3697C136.51 73.4783 136.589 73.6151 136.627 73.7653C136.627 73.961 135.647 73.7653 135.131 73.9085C135.131 73.899 134.993 73.4835 135.351 73.4835Z" fill="#AA1713"/>
<path id="Vector_85" d="M120.829 83.8092C120.829 83.8092 121.384 83.1317 121.948 83.2366C122.206 83.2989 122.442 83.4298 122.631 83.6155C122.821 83.8012 122.956 84.0347 123.023 84.2912C123.023 84.6252 121.341 84.253 120.447 84.5441C120.447 84.5441 120.213 83.814 120.829 83.8092Z" fill="#AA1713"/>
<path id="Vector_86" d="M117.432 87.1211C117.432 87.1211 120.509 86.2479 121.446 87.25C122.382 88.252 121.369 88.0039 120.356 87.6794C119.4 87.4091 118.421 87.2223 117.432 87.1211Z" fill="#0ABA4A"/>
<path id="Vector_87" d="M85.6499 83.9242C85.6499 83.9242 82.0373 84.4013 83.4709 84.7878C84.9044 85.1743 88.2494 85.3222 90.6386 85.2984C93.0279 85.2745 97.1087 84.4777 97.7729 83.4613C98.4371 82.4449 96.9893 81.2854 95.981 81.295C94.9727 81.3045 85.6499 83.9242 85.6499 83.9242Z" fill="#C24437"/>
<path id="Vector_88" d="M98.4373 77.573C98.4373 77.573 102.738 76.7713 104.32 76.7522C105.901 76.7331 108.864 76.7093 107.502 75.4591C106.14 74.2089 101.768 73.1687 100.248 73.6888C98.7287 74.2089 98.4373 77.573 98.4373 77.573Z" fill="#C24437"/>
<path id="Vector_89" d="M100.181 72.2812C100.181 72.2812 97.6438 72.5198 97.1899 69.5662C96.7359 66.6125 99.7846 64.7945 99.7846 64.7945C100.245 65.3559 100.479 66.0691 100.439 66.7938C100.439 66.7938 101.362 63.9309 102.418 63.6064C103.474 63.2819 103.813 65.5962 103.813 65.5962C104.501 65.4089 105.22 65.3667 105.925 65.4721C106.881 65.6725 105.519 67.166 105.519 67.166C105.519 67.166 102.891 68.4591 103.846 68.9745C104.802 69.4898 105.199 67.0658 107.521 66.2976C108.816 65.8309 110.231 65.8158 111.535 66.2546L110.579 67.3235C111.994 67.1942 113.421 67.286 114.808 67.5955C114.808 67.5955 113.881 69.9288 112.988 70.4107C112.094 70.8927 110.875 70.802 111.043 71.2792C111.21 71.7563 112.409 70.802 113.628 70.9881C114.296 71.0737 114.934 71.3192 115.487 71.7039C115.487 71.7039 114.87 73.3501 112.395 74.5382C110.323 75.5667 108.014 76.0278 105.705 75.8743C103.693 75.7311 100.21 75.1347 100.181 72.2812Z" fill="#0AAE4A"/>
<path id="Vector_90" d="M95.8423 71.9569C95.8423 71.9569 97.4718 71.3604 95.9714 69.0939C94.4709 66.8274 94.5378 65.7824 94.5999 64.3556C94.6508 63.5968 94.5163 62.837 94.2081 62.1416C93.9771 62.8683 93.4964 63.4902 92.851 63.8976C92.2557 64.2174 91.7785 64.719 91.4891 65.3291C91.4891 65.3291 90.5334 62.8573 89.659 62.1798C89.4071 62.7362 89.0538 63.241 88.6172 63.6685C87.9387 64.3079 87.0977 64.9521 86.897 65.7442C86.7891 66.1996 86.7977 66.6748 86.9222 67.1259C87.0466 67.5771 87.2828 67.9897 87.609 68.3257C88.3592 69.1607 87.609 70.5397 86.6533 68.9698C85.6976 67.3999 84.178 64.7708 82.0086 64.37C79.8392 63.9691 77.9469 65.4674 76.9004 66.5363C75.8539 67.6051 72.7957 68.2684 72.7957 68.2684C72.7957 68.2684 73.651 69.2227 74.4012 70.0959C75.1515 70.9691 77.4834 71.8089 78.3387 72.434C78.8282 72.7788 79.216 73.2484 79.4617 73.7939C78.6108 73.8201 77.7636 73.9175 76.9291 74.085C77.1276 74.7624 77.4979 75.3771 78.0042 75.8696C78.7497 76.4947 80.8713 76.2084 80.8713 76.2084C80.4105 76.7219 80.1376 77.3762 80.0972 78.0646C80.0972 78.0646 82.2714 78.7278 83.3227 78.1361C84.0263 77.7537 84.7678 77.445 85.5351 77.2152C85.5351 77.2152 85.0573 77.9071 85.1194 78.222C85.1815 78.537 87.9196 77.7735 89.0808 77.7449C90.2419 77.7162 92.4592 77.6828 94.1364 76.5567C95.8137 75.4306 95.8423 71.9569 95.8423 71.9569Z" fill="#0AA04A"/>
<path id="Vector_91" d="M99.1537 77.7346C99.1537 77.7346 101.572 76.9425 100.807 74.0556C100.043 71.1688 96.5064 70.7155 96.5064 70.7155C96.3074 71.4137 96.3773 72.1609 96.7023 72.8102C96.7023 72.8102 94.7145 70.5532 93.6154 70.6725C92.5164 70.7918 93.1376 73.0584 93.1376 73.0584C92.4316 73.1623 91.7548 73.4108 91.1497 73.7884C90.3565 74.3515 91.231 74.8764 92.201 75.177C93.171 75.4776 95.1302 75.3153 94.4564 76.1695C93.7827 77.0236 92.4495 74.9575 90.0172 75.1817C88.6428 75.2717 87.3393 75.8233 86.3187 76.7468L87.6089 77.3481C86.2587 77.7938 84.9867 78.4475 83.8386 79.2854C83.8386 79.2854 85.621 81.0556 86.634 81.1415C87.6471 81.2274 88.7222 80.6644 88.7653 81.1415C88.8083 81.6187 87.3317 81.2417 86.2757 81.9098C85.6917 82.2533 85.1999 82.733 84.8421 83.3078C84.8421 83.3078 86.0654 84.5676 88.8035 84.6725C91.1212 84.797 93.4303 84.3029 95.4934 83.241C97.2996 82.301 100.267 80.3637 99.1537 77.7346Z" fill="#0ABA4A"/>
<path id="Vector_92" d="M80.0107 74.8861C84.7414 74.6618 86.3996 72.7007 86.5907 72.4526C88.2871 73.4451 89.7923 74.2419 90.165 74.0797C90.8866 73.7695 89.1663 73.5357 87.6324 72.6959C86.6767 72.1854 85.3196 71.2119 83.8096 70.3101C83.8096 69.7661 83.8096 67.6284 82.1467 66.3926C82.9848 67.4332 83.4266 68.7366 83.3939 70.0715C81.2484 68.8643 78.883 67.929 77.0911 68.7355C78.8263 68.5487 80.5772 68.8967 82.1085 69.7327C83.1741 70.353 84.7653 71.3503 86.2562 72.2331C84.8561 74.4376 80.0107 74.8861 80.0107 74.8861Z" fill="#0ABA4A"/>
<path id="Vector_93" d="M90.6528 73.2118C90.6528 73.2118 90.6098 73.6078 90.9681 73.4933C91.1306 73.4408 91.3074 72.434 91.2644 71.1075C92.17 70.5372 92.8703 69.6938 93.2638 68.6995C93.6573 67.7052 93.7235 66.6116 93.453 65.5771C93.5538 66.5334 93.4016 67.4993 93.0117 68.3784C92.6218 69.2576 92.0078 70.0193 91.231 70.5874C91.1115 69.027 90.6767 67.1661 89.5872 65.8539C89.5872 65.8491 91.3122 68.0918 90.6528 73.2118Z" fill="#0ABA4A"/>
<path id="Vector_94" d="M96.4347 77.496C95.8223 77.9334 95.184 78.3333 94.5233 78.6937C92.1771 76.5131 88.6744 76.4463 88.6744 76.4463C90.7268 76.6366 92.6658 77.4719 94.2127 78.8321C93.4622 79.1589 92.6716 79.3851 91.8617 79.5049C89.7948 79.7474 87.7042 79.7024 85.6497 79.3713C87.6917 79.7922 89.7839 79.9176 91.8617 79.7435C93.0576 79.6062 94.2115 79.221 95.2497 78.6126C95.1445 79.1757 94.141 83.4701 87.4989 83.1695C87.4989 83.1695 91.0541 83.828 93.5485 81.8096C94.6222 80.9713 95.3404 79.7601 95.5603 78.417C95.9212 78.19 96.2575 77.9261 96.5637 77.6297C96.5637 77.6297 96.6975 77.4388 96.4347 77.496Z" fill="#0ABA4A"/>
<path id="Vector_95" d="M97.6584 71.9179C98.0787 72.4756 98.3398 73.1366 98.4139 73.8306C98.4879 74.5246 98.3722 75.2258 98.0789 75.8593C97.7413 75.3798 97.3005 74.982 96.7887 74.695C95.7135 74.1129 94.0363 71.832 94.0363 71.832C94.4901 72.7129 95.0786 73.5178 95.7804 74.2179C94.7201 74.4703 93.6152 74.4703 92.5549 74.2179C93.6246 74.7279 94.8501 74.8065 95.9763 74.4374V74.3896C96.155 74.546 96.3433 74.691 96.5402 74.8239C98.0598 75.8354 98.3226 76.952 98.3226 76.952C98.3226 76.952 98.4994 77.2097 98.5663 76.8948C98.5427 76.6225 98.4452 76.3619 98.2843 76.1408C98.5615 75.6398 99.3452 73.8552 97.6584 71.9179Z" fill="#0ABA4A"/>
<path id="Vector_96" d="M97.6601 71.9205L97.5823 71.8232C97.6114 71.8524 97.6309 71.8865 97.6601 71.9205Z" fill="#0ABA4A"/>
<path id="Vector_97" d="M111.277 72.1614C111.277 72.1614 108.845 71.9228 107.655 70.4865C110.718 69.2698 113.528 68.3727 113.528 68.3727C112.2 68.638 110.893 68.9935 109.614 69.4368C108.362 69.8806 107.182 70.3911 106.178 70.7347C106.451 69.8748 106.89 69.0769 107.471 68.3867C108.053 67.6964 108.764 67.1274 109.566 66.7122C108.663 67.0778 107.854 67.6416 107.199 68.3619C106.544 69.0821 106.059 69.9404 105.782 70.8731C105.382 71.0161 104.971 71.1278 104.554 71.2071C103.985 71.3073 103.096 71.4409 102.312 71.5602C102.052 70.6862 101.912 69.7807 101.897 68.869C101.897 68.8117 101.897 68.7544 101.897 68.702C102.685 67.2705 104.835 66.1825 104.835 66.1825C103.695 66.5316 102.681 67.2068 101.921 68.1246C101.995 67.2741 102.18 66.4369 102.47 65.6338C101.677 67.0696 101.408 68.7363 101.71 70.3482C98.9579 70.1287 99.0344 66.8267 99.0344 66.8267C98.7811 70.1955 101.199 70.644 101.772 70.7108C101.83 71.0135 101.903 71.313 101.992 71.6079L100.726 71.7988C100.726 71.7988 100.487 71.9133 100.583 72.0946C100.678 72.2759 101.123 72.1232 101.123 72.1232C101.914 72.0453 102.701 71.9227 103.478 71.7558C103.478 71.7892 104.678 73.6645 108.008 74.0319L108.429 73.8172C107.556 73.7981 106.697 73.5983 105.906 73.2303C105.114 72.8623 104.408 72.3342 103.832 71.6795C105.031 71.4139 106.207 71.055 107.349 70.6058C107.349 70.6058 108.266 72.128 111.277 72.1614Z" fill="#0ABA4A"/>
<path id="Vector_98" d="M101.672 79.5817C101.642 80.1647 101.691 80.7491 101.82 81.3186C102.021 81.8339 104.596 81.1611 105.762 81.4713C106.928 81.7814 111.573 81.6049 114.607 81.6383C117.642 81.6717 121.235 79.5053 121.622 79.1141C122.009 78.7228 121.909 75.8884 121.254 75.0582C120.6 74.2279 101.672 79.5817 101.672 79.5817Z" fill="#D86858"/>
<path id="Vector_99" d="M104.415 76.3461C104.415 76.3461 109.795 72.1614 114.449 71.856C119.104 71.5506 122.487 74.4804 120.834 76.9474C119.18 79.4143 111.568 80.0108 108.854 79.7817C106.14 79.5527 103.311 80.8697 101.877 79.8533C100.444 78.8369 104.415 76.3461 104.415 76.3461Z" fill="#E58464"/>
<path id="Vector_100" opacity="0.37" d="M109.112 74.7959C109.112 74.7959 110.751 73.813 111.621 73.8989C112.49 73.9848 112.987 74.8532 111.253 75.4497C109.518 76.0461 108.061 75.8696 109.112 74.7959Z" fill="#F6DFE2"/>
<path id="Vector_101" opacity="0.37" d="M111.927 76.823C111.927 76.823 114.273 76.2838 115.377 76.6225C116.481 76.9613 116.916 78.0016 114.531 78.1161C112.147 78.2306 110.312 77.6341 111.927 76.823Z" fill="#F6DFE2"/>
<path id="Vector_102" opacity="0.37" d="M115.74 74.3471C115.74 74.3471 117.145 73.8174 117.805 74.0083C118.464 74.1991 118.727 74.934 117.303 75.1535C115.879 75.373 114.775 75.0342 115.74 74.3471Z" fill="#F6DFE2"/>
<path id="Vector_103" opacity="0.37" d="M106.909 77.2338C107.578 77.0036 108.28 76.8827 108.988 76.876C109.944 76.9141 109.92 77.5917 108.663 77.8923C107.683 78.1693 106.681 78.3577 105.667 78.4554C104.745 78.3218 106.083 77.4867 106.909 77.2338Z" fill="#F6DFE2"/>
<path id="Vector_104" d="M43.7182 81.5528C43.7182 81.5528 44.0431 81.1564 44.368 81.2185C44.518 81.2541 44.6555 81.3298 44.7657 81.4375C44.876 81.5451 44.9549 81.6807 44.994 81.8297C44.994 82.0255 44.0383 81.8297 43.4936 81.9778C43.484 81.9778 43.3598 81.5528 43.7182 81.5528Z" fill="#E2B22C"/>
</g>
</g>
</g>
<defs>
<clipPath id="clip0_13799_21213">
<rect width="203" height="175" fill="white"/>
</clipPath>
</defs>
</svg>
