<svg width="40" height="32" viewBox="0 0 40 32" fill="none" xmlns="http://www.w3.org/2000/svg">
<g id="Frame 275">
<g id="Group 7420">
<path id="Vector" d="M33.1778 2.36243C30.7725 1.52346 28.2628 1.97062 26.0817 3.61285C24.9285 2.56067 23.0976 1.65082 20.1921 1.50663C16.015 1.29903 12.1282 2.86121 9.52981 5.79107C7.75322 7.79444 6.82698 10.1731 7.00747 12.2195C6.73957 12.2868 6.47001 12.3665 6.20138 12.4662C3.41607 13.4963 1.66562 15.87 1.51841 18.8163C1.38985 21.388 2.62314 23.61 4.90061 24.913C7.06508 26.1501 9.79205 26.3637 12.1456 25.5932C12.835 25.3671 13.4899 25.0519 14.0923 24.6577C15.2089 25.818 16.1591 27.0323 17.1689 30.0102L17.3046 30.4091L17.6387 30.1621C20.6142 27.9616 23.4951 26.3964 26.2003 25.5107C28.5142 24.7532 30.7771 24.4669 32.9272 24.6592L33.551 24.7147L33.2127 24.1759C32.4083 22.8973 31.7079 20.0381 32.5862 17.5803C32.8391 17.5479 33.0909 17.4911 33.3424 17.409C34.5098 17.0269 35.6465 16.1193 36.564 14.8131C38.067 12.6716 38.6438 9.92591 38.0685 7.64706C37.4575 5.22609 35.5825 3.20159 33.1778 2.36243Z" fill="white"/>
<path id="Vector_2" d="M13.9876 24.7282C13.9876 24.7282 13.8972 24.7914 13.7279 24.9102C13.6429 24.9706 13.5375 25.0454 13.4051 25.1208C13.2736 25.1971 13.1259 25.2957 12.9468 25.3809C12.858 25.4262 12.7645 25.4737 12.6665 25.5238C12.5667 25.5715 12.4595 25.6142 12.3487 25.6628C12.1278 25.7641 11.8772 25.8442 11.609 25.9368C11.0682 26.1073 10.4316 26.2429 9.71606 26.3037C9.00104 26.3615 8.20427 26.3473 7.36489 26.187C6.52734 26.0278 5.63877 25.7453 4.78897 25.248C4.57245 25.1318 4.37038 24.9835 4.15971 24.8434C3.96038 24.686 3.75246 24.5341 3.56447 24.3512C3.17842 23.999 2.81945 23.591 2.52375 23.1236C2.22841 22.6583 1.96946 22.1479 1.80726 21.596C1.6434 21.0466 1.53478 20.4692 1.51485 19.8837C1.47151 18.7191 1.68126 17.5693 2.14026 16.5654C2.59086 15.559 3.27535 14.7217 4.03993 14.0974C4.42542 13.7889 4.82262 13.516 5.23536 13.3062C5.33612 13.2489 5.43944 13.1982 5.54368 13.1528C5.64737 13.106 5.74886 13.057 5.852 13.0138C6.06139 12.936 6.26346 12.8496 6.4712 12.7918C6.88028 12.6564 7.28955 12.5809 7.68126 12.5195C8.07608 12.4745 8.4559 12.4459 8.81854 12.4631C9.54289 12.4849 10.1901 12.6218 10.7277 12.8186C11.2666 13.0142 11.6927 13.2695 12.0171 13.5029C12.175 13.6276 12.3178 13.7316 12.4257 13.8431C12.537 13.9493 12.6338 14.0353 12.6992 14.1184C12.8357 14.2757 12.9083 14.3595 12.9083 14.3595C12.9083 14.3595 12.8258 14.2865 12.6707 14.1492C12.5965 14.0771 12.4902 14.0043 12.3695 13.9145C12.2527 13.8199 12.1003 13.7357 11.9356 13.6338C11.5973 13.4464 11.1651 13.2506 10.639 13.1195C10.114 12.9877 9.4979 12.9203 8.8242 12.96C8.48754 12.9734 8.13734 13.0309 7.77782 13.1008C7.42103 13.187 7.05163 13.2837 6.68662 13.4346C6.50101 13.4999 6.32253 13.5925 6.1371 13.6746C6.04621 13.72 5.95697 13.7707 5.8659 13.8188C5.77428 13.8655 5.68449 13.917 5.59671 13.9744C5.23572 14.1852 4.89504 14.45 4.56678 14.7399C3.91686 15.3275 3.35435 16.077 2.98915 16.954C2.61628 17.8255 2.44913 18.8277 2.48553 19.8406C2.52887 20.85 2.80884 21.8096 3.30534 22.608C3.54508 23.0119 3.84133 23.3718 4.16538 23.6908C4.32174 23.8565 4.49967 23.9962 4.66791 24.1434C4.84932 24.2743 5.02122 24.4155 5.20976 24.5281C5.94508 25.0104 6.73984 25.3205 7.50497 25.5229C8.27157 25.7269 9.01695 25.8015 9.69759 25.807C10.3786 25.81 10.9978 25.7411 11.5336 25.6317C12.0672 25.516 12.5246 25.3836 12.8856 25.239C13.0703 25.1763 13.225 25.0982 13.3636 25.0394C13.5031 24.9816 13.6156 24.9216 13.7069 24.8735C13.8903 24.7787 13.9876 24.7282 13.9876 24.7282Z" fill="#452210"/>
<path id="Vector_3" d="M38.071 7.68592C37.8206 7.35414 37.5425 7.0233 37.2316 6.69434C38.7211 10.964 35.4654 15.724 30.6804 15.9704C26.7533 16.1727 17.8667 19.6376 15.1675 23.5761C19.9861 19.8407 24.8077 18.4128 30.9092 17.9382C31.4924 17.8929 32.0169 17.8832 32.4903 17.9021C32.5209 17.8018 32.5496 17.701 32.5849 17.6019C32.8378 17.5696 33.0896 17.5127 33.341 17.4306C34.5085 17.0485 35.6452 16.1409 36.5627 14.8348C38.0618 12.6984 38.6394 9.96139 38.071 7.68592Z" fill="white"/>
<path id="Vector_4" d="M32.855 17.283C32.855 17.283 32.9428 17.2655 33.1068 17.2325C33.2699 17.1951 33.5088 17.1293 33.799 17.0072C34.3781 16.767 35.1586 16.2555 35.8497 15.3739C36.5459 14.5056 37.1523 13.2778 37.4286 11.8366C37.4992 11.4772 37.5457 11.1044 37.5656 10.7235C37.589 10.3427 37.5855 9.95315 37.549 9.56078C37.4826 8.77361 37.2957 7.97709 36.9561 7.23181C36.2745 5.72855 35.0796 4.58454 33.8294 3.89275C32.5739 3.18488 31.252 2.94176 30.1566 2.98122C29.0526 3.02236 28.1781 3.33562 27.6048 3.59951C27.3199 3.73921 27.0991 3.85442 26.9571 3.94531C26.8124 4.03134 26.7349 4.07716 26.7349 4.07716C26.7349 4.07716 26.8038 4.01899 26.9335 3.91015C27.0609 3.79625 27.2632 3.64738 27.532 3.46317C28.0735 3.11232 28.9355 2.66085 30.1127 2.48636C30.698 2.40033 31.3555 2.3893 32.0509 2.48879C32.3998 2.5333 32.7539 2.61971 33.1158 2.72145C33.4733 2.83684 33.8403 2.96607 34.1977 3.14374C34.9194 3.48337 35.6233 3.96663 36.257 4.57818C36.8875 5.19236 37.4432 5.94549 37.8372 6.8127C38.0392 7.24285 38.18 7.69806 38.2883 8.14803C38.3955 8.59669 38.4509 9.04909 38.4767 9.49308C38.5037 9.93725 38.4898 10.3747 38.4448 10.7979C38.4026 11.2215 38.3293 11.6317 38.2279 12.0229C37.8289 13.5927 37.051 14.86 36.2094 15.7078C35.3715 16.5701 34.4747 16.9963 33.8471 17.1544C33.5315 17.2361 33.2811 17.264 33.1125 17.2748C32.945 17.2802 32.855 17.283 32.855 17.283Z" fill="#452210"/>
<path id="Vector_5" d="M14.462 25.0664C14.462 25.0664 14.575 25.1765 14.789 25.3862C15.0024 25.5975 15.3173 25.9106 15.6839 26.3585C16.0407 26.8135 16.4225 27.4211 16.7744 28.1733C16.8598 28.3618 16.9414 28.5597 17.0293 28.763C17.0727 28.8649 17.1169 28.9684 17.1619 29.0735C17.2021 29.1801 17.2425 29.2883 17.2842 29.3981C17.3033 29.4482 17.3225 29.4989 17.3417 29.55L17.3815 29.65C17.4073 29.7138 17.4331 29.7783 17.4591 29.8438C17.464 29.8988 17.503 29.8481 17.5309 29.8303L17.6183 29.763C17.68 29.7159 17.7423 29.668 17.8052 29.6197C19.463 28.3998 21.5369 27.0325 24.0805 25.9409C25.3507 25.3979 26.7405 24.9319 28.2333 24.6357C28.6063 24.5622 28.9871 24.5072 29.3707 24.4501C29.5638 24.4301 29.7579 24.4101 29.9524 24.3899L30.2458 24.3609L30.5411 24.3471C30.7386 24.3381 30.9368 24.3291 31.1362 24.32C31.3357 24.3222 31.5359 24.3245 31.7367 24.3267L32.0368 24.3304L32.0452 24.3297L32.0577 24.3278L32.0542 24.3243L32.0534 24.3252L31.9587 24.0925C31.8325 23.7404 31.7151 23.383 31.6334 23.0162C31.4154 22.1243 31.3413 21.2139 31.3748 20.3177C31.4057 19.8698 31.4483 19.4241 31.5465 18.9895C31.5714 18.881 31.5891 18.7714 31.6195 18.6648L31.6992 18.3867L31.7115 18.3662L31.6894 18.36L31.6813 18.3591L31.5579 18.3647L31.2653 18.3778C31.0705 18.3871 30.8767 18.3963 30.6839 18.4054C30.4915 18.4221 30.3004 18.4385 30.1101 18.455C29.7299 18.4905 29.3517 18.5126 28.981 18.5573C28.6104 18.6041 28.2439 18.6504 27.8816 18.6963C24.9901 19.1019 22.4368 19.8219 20.3876 20.6734C20.2592 20.7256 20.1319 20.7769 20.0065 20.8277C19.883 20.8838 19.7616 20.9394 19.6413 20.9942C19.4013 21.1051 19.1649 21.2079 18.94 21.317C18.4959 21.5491 18.0666 21.7499 17.6869 21.9781C17.4945 22.0881 17.3091 22.1941 17.1297 22.2964C16.9558 22.4066 16.7881 22.5124 16.6275 22.6142C16.3015 22.8111 16.0228 23.0198 15.764 23.1971C15.5029 23.371 15.2909 23.5528 15.0967 23.6972C14.9023 23.8416 14.7467 23.9749 14.6215 24.083C14.3685 24.2973 14.2349 24.4105 14.2349 24.4105C14.2349 24.4105 14.3588 24.2863 14.5931 24.0512C14.7103 23.9325 14.8561 23.7864 15.0393 23.6265C15.2225 23.467 15.4232 23.2674 15.6728 23.0731C15.9193 22.8758 16.1865 22.6444 16.5014 22.4232C16.6568 22.3093 16.819 22.1905 16.9876 22.0673C17.1619 21.9517 17.3428 21.8318 17.5298 21.7078C17.9005 21.4513 18.3217 21.2207 18.7591 20.9573C18.9816 20.8328 19.2152 20.714 19.4527 20.5872C19.572 20.5244 19.6926 20.4608 19.815 20.3965C19.9399 20.3376 20.0661 20.2779 20.1939 20.2179C22.2327 19.2351 24.8121 18.3755 27.7576 17.8674C28.1267 17.8094 28.5006 17.7509 28.8777 17.6916C29.2564 17.6355 29.6416 17.6024 30.0298 17.5566C30.224 17.5352 30.4193 17.5139 30.6155 17.4922C30.8127 17.4754 31.0104 17.4649 31.2091 17.4509C31.4622 17.435 31.7162 17.4187 31.9713 17.4026C32.1652 17.391 32.3599 17.3793 32.5545 17.3677L32.8484 17.3499L32.996 17.3411L33.0327 17.3389L33.0395 17.3467L33.0335 17.3643L33.0095 17.4344C32.9457 17.6222 32.8813 17.8103 32.8171 17.999L32.7202 18.2833L32.6253 18.5812L32.6013 18.6561L32.5911 18.6931L32.5723 18.7627L32.5342 18.9024C32.5084 18.9955 32.4951 19.0926 32.4744 19.1877C32.3923 19.5685 32.3599 19.9643 32.3349 20.362C32.3124 21.1597 32.3813 21.9816 32.5776 22.7808C32.6502 23.1101 32.7553 23.4268 32.8639 23.7365C32.878 23.775 32.8945 23.812 32.9093 23.8498L32.9323 23.9063L32.9438 23.9345L32.9689 23.9908L33.077 24.2341L33.2103 24.4804C33.3882 24.812 33.5651 25.1292 33.7402 25.4417C33.3509 25.4122 32.9627 25.3824 32.5763 25.3529C32.383 25.3381 32.1902 25.3231 31.9979 25.3084L31.7115 25.3016C31.5222 25.2971 31.334 25.2928 31.1462 25.2884C30.9582 25.2943 30.7712 25.3003 30.5848 25.3061L30.3054 25.3147L30.028 25.3379C29.8433 25.3534 29.6597 25.3691 29.4762 25.3847C29.1118 25.4325 28.749 25.4765 28.3922 25.5388C26.9652 25.789 25.6164 26.196 24.3672 26.6785C21.8663 27.6474 19.762 28.8879 18.0574 29.9992C17.9102 30.0972 17.7648 30.1939 17.6213 30.2893C17.5476 30.3381 17.475 30.3865 17.4026 30.4346C17.3347 30.4705 17.2424 30.5844 17.2339 30.4406C17.1341 30.1268 17.037 29.8212 16.9423 29.524C16.9081 29.4131 16.8744 29.3037 16.8408 29.1961C16.8033 29.0903 16.7662 28.9863 16.7298 28.8838C16.6559 28.679 16.5882 28.4789 16.5162 28.2885C16.2197 27.5311 15.8908 26.9164 15.5737 26.4436C15.2465 25.9783 14.957 25.6407 14.7615 25.4127C14.5655 25.1859 14.462 25.0664 14.462 25.0664Z" fill="#452210"/>
<path id="Vector_6" d="M21.4849 2.69038C26.292 2.02665 31.3083 9.58208 24.9442 14.1568C25.918 11.4747 29.1038 4.30961 21.4849 2.69038Z" fill="white"/>
<path id="Vector_7" d="M26.3501 12.8954C26.3501 12.8954 26.4256 12.8032 26.5672 12.6297C26.6328 12.5384 26.7124 12.4243 26.8025 12.2884C26.8843 12.1459 26.9852 11.9873 27.0735 11.7937C27.2588 11.4129 27.4413 10.9242 27.5581 10.3374C27.6721 9.75238 27.733 9.06807 27.6426 8.33046C27.6088 7.96091 27.5177 7.58294 27.4076 7.19955C27.2875 6.81766 27.1211 6.43782 26.9176 6.06509C26.7008 5.69946 26.4448 5.34412 26.1409 5.01478C25.8282 4.69498 25.482 4.39051 25.0872 4.13204C24.2999 3.61306 23.3592 3.24763 22.3449 3.02732C21.3277 2.81486 20.2347 2.735 19.1205 2.76306C16.8911 2.81168 14.8031 3.40173 13.1031 4.33328C12.2544 4.80064 11.4929 5.33795 10.843 5.91771C10.1929 6.49748 9.64574 7.10847 9.20064 7.71012C8.30585 8.91415 7.84044 10.0765 7.64513 10.9035C7.58735 11.1094 7.56522 11.2979 7.5312 11.4599C7.51273 11.6233 7.49335 11.7627 7.48402 11.8752C7.47342 12.1012 7.46775 12.2214 7.46775 12.2214C7.46775 12.2214 7.45897 12.101 7.44233 11.8745C7.43849 11.7604 7.4416 11.6192 7.44196 11.4511C7.45769 11.2848 7.45952 11.0894 7.49609 10.8741C7.60545 10.0107 7.96699 8.76098 8.80143 7.42734C9.21581 6.76155 9.74358 6.07668 10.3915 5.41949C11.039 4.7623 11.8159 4.14401 12.7004 3.60315C14.4679 2.52199 16.7152 1.81991 19.094 1.76979C20.2795 1.73987 21.4431 1.83936 22.548 2.09913C23.6482 2.36657 24.6862 2.81056 25.5495 3.4397C25.9824 3.75277 26.3609 4.11914 26.6946 4.50291C27.02 4.8964 27.2862 5.31682 27.5024 5.74322C27.7061 6.17655 27.861 6.61231 27.9628 7.04208C28.0557 7.47335 28.1216 7.89171 28.1272 8.29381C28.1611 9.0965 28.0323 9.81503 27.8557 10.4152C27.6768 11.0172 27.4364 11.502 27.2056 11.8702C27.0946 12.0578 26.9735 12.2085 26.8749 12.3422C26.7681 12.4698 26.6747 12.5747 26.5983 12.6579C26.4362 12.813 26.3501 12.8954 26.3501 12.8954Z" fill="#452210"/>
</g>
</g>
</svg>
